G04 #@! TF.FileFunction,Copper,L1,Top,Signal*
%FSLAX46Y46*%
G04 Gerber Fmt 4.6, Leading zero omitted, Abs format (unit mm)*
G04 Created by KiCad (PCBNEW 0.201509030901+6151~29~ubuntu14.04.1-product) date Tue 15 Sep 2015 04:13:20 PM EEST*
%MOMM*%
G01*
G04 APERTURE LIST*
%ADD10C,0.100000*%
%ADD11O,1.524000X3.048000*%
%ADD12R,2.000000X2.000000*%
%ADD13C,0.500000*%
%ADD14C,1.000000*%
G04 APERTURE END LIST*
D10*
D11*
X160000000Y-125000000D03*
X162540000Y-125000000D03*
X165080000Y-125000000D03*
X167620000Y-125000000D03*
X170160000Y-125000000D03*
X172700000Y-125000000D03*
X175240000Y-125000000D03*
X177780000Y-125000000D03*
X182860000Y-125000000D03*
X185400000Y-125000000D03*
X187940000Y-125000000D03*
X190480000Y-125000000D03*
X193020000Y-125000000D03*
X195560000Y-125000000D03*
X195560000Y-76740000D03*
X193020000Y-76740000D03*
X190480000Y-76740000D03*
X187940000Y-76740000D03*
X185400000Y-76740000D03*
X182860000Y-76740000D03*
X180320000Y-76740000D03*
X177780000Y-76740000D03*
X173716000Y-76740000D03*
X171176000Y-76740000D03*
X168636000Y-76740000D03*
X166096000Y-76740000D03*
X163556000Y-76740000D03*
X161016000Y-76740000D03*
X158476000Y-76740000D03*
X155936000Y-76740000D03*
X153396000Y-76740000D03*
X150856000Y-76740000D03*
D12*
X195580000Y-81280000D03*
X193040000Y-81280000D03*
X190500000Y-81280000D03*
X195580000Y-121920000D03*
X193040000Y-121920000D03*
X144780000Y-83820000D03*
X187960000Y-81280000D03*
X185420000Y-81280000D03*
X182880000Y-81280000D03*
X180340000Y-81280000D03*
X177800000Y-81280000D03*
X172720000Y-81280000D03*
X170180000Y-81280000D03*
X167640000Y-81280000D03*
X165100000Y-81280000D03*
X162560000Y-81280000D03*
X160020000Y-81280000D03*
X154940000Y-81280000D03*
X152400000Y-81280000D03*
X190500000Y-121920000D03*
X187960000Y-121920000D03*
X185420000Y-121920000D03*
X182880000Y-121920000D03*
X177800000Y-121920000D03*
X175260000Y-121920000D03*
X172720000Y-121920000D03*
X170180000Y-121920000D03*
X167640000Y-121920000D03*
X165100000Y-121920000D03*
X162560000Y-121920000D03*
X147320000Y-83820000D03*
X149860000Y-83820000D03*
X152400000Y-83820000D03*
X154940000Y-83820000D03*
X157480000Y-83820000D03*
X160020000Y-83820000D03*
X162560000Y-83820000D03*
X165100000Y-83820000D03*
X167640000Y-83820000D03*
X170180000Y-83820000D03*
X172720000Y-83820000D03*
X175260000Y-83820000D03*
X177800000Y-83820000D03*
X180340000Y-83820000D03*
X182880000Y-83820000D03*
X185420000Y-83820000D03*
X187960000Y-83820000D03*
X190500000Y-83820000D03*
X193040000Y-83820000D03*
X195580000Y-83820000D03*
X144780000Y-86360000D03*
X147320000Y-86360000D03*
X149860000Y-86360000D03*
X152400000Y-86360000D03*
X154940000Y-86360000D03*
X157480000Y-86360000D03*
X160020000Y-86360000D03*
X162560000Y-86360000D03*
X165100000Y-86360000D03*
X167640000Y-86360000D03*
X170180000Y-86360000D03*
X172720000Y-86360000D03*
X175260000Y-86360000D03*
X177800000Y-86360000D03*
X180340000Y-86360000D03*
X182880000Y-86360000D03*
X185420000Y-86360000D03*
X187960000Y-86360000D03*
X190500000Y-86360000D03*
X193040000Y-86360000D03*
X195580000Y-86360000D03*
X144780000Y-88900000D03*
X147320000Y-88900000D03*
X149860000Y-88900000D03*
X152400000Y-88900000D03*
X154940000Y-88900000D03*
X157480000Y-88900000D03*
X160020000Y-88900000D03*
X162560000Y-88900000D03*
X165100000Y-88900000D03*
X167640000Y-88900000D03*
X170180000Y-88900000D03*
X172720000Y-88900000D03*
X175260000Y-88900000D03*
X177800000Y-88900000D03*
X180340000Y-88900000D03*
X182880000Y-88900000D03*
X185420000Y-88900000D03*
X187960000Y-88900000D03*
X190500000Y-88900000D03*
X193040000Y-88900000D03*
X195580000Y-88900000D03*
X144780000Y-91440000D03*
X147320000Y-91440000D03*
X149860000Y-91440000D03*
X152400000Y-91440000D03*
X154940000Y-91440000D03*
X157480000Y-91440000D03*
X160020000Y-91440000D03*
X162560000Y-91440000D03*
X165100000Y-91440000D03*
X167640000Y-91440000D03*
X170180000Y-91440000D03*
X172720000Y-91440000D03*
X175260000Y-91440000D03*
X177800000Y-91440000D03*
X180340000Y-91440000D03*
X182880000Y-91440000D03*
X185420000Y-91440000D03*
X187960000Y-91440000D03*
X190500000Y-91440000D03*
X193040000Y-91440000D03*
X195580000Y-91440000D03*
X144780000Y-93980000D03*
X147320000Y-93980000D03*
X149860000Y-93980000D03*
X152400000Y-93980000D03*
X154940000Y-93980000D03*
X157480000Y-93980000D03*
X160020000Y-93980000D03*
X162560000Y-93980000D03*
X165100000Y-93980000D03*
X167640000Y-93980000D03*
X170180000Y-93980000D03*
X172720000Y-93980000D03*
X175260000Y-93980000D03*
X177800000Y-93980000D03*
X180340000Y-93980000D03*
X182880000Y-93980000D03*
X185420000Y-93980000D03*
X187960000Y-93980000D03*
X190500000Y-93980000D03*
X193040000Y-93980000D03*
X195580000Y-93980000D03*
X144780000Y-96520000D03*
X147320000Y-96520000D03*
X149860000Y-96520000D03*
X152400000Y-96520000D03*
X154940000Y-96520000D03*
X157480000Y-96520000D03*
X160020000Y-96520000D03*
X162560000Y-96520000D03*
X165100000Y-96520000D03*
X167640000Y-96520000D03*
X170180000Y-96520000D03*
X172720000Y-96520000D03*
X175260000Y-96520000D03*
X177800000Y-96520000D03*
X180340000Y-96520000D03*
X182880000Y-96520000D03*
X185420000Y-96520000D03*
X187960000Y-96520000D03*
X190500000Y-96520000D03*
X193040000Y-96520000D03*
X195580000Y-96520000D03*
X144780000Y-99060000D03*
X147320000Y-99060000D03*
X149860000Y-99060000D03*
X152400000Y-99060000D03*
X154940000Y-99060000D03*
X157480000Y-99060000D03*
X160020000Y-99060000D03*
X162560000Y-99060000D03*
X165100000Y-99060000D03*
X167640000Y-99060000D03*
X170180000Y-99060000D03*
X172720000Y-99060000D03*
X175260000Y-99060000D03*
X177800000Y-99060000D03*
X180340000Y-99060000D03*
X182880000Y-99060000D03*
X185420000Y-99060000D03*
X187960000Y-99060000D03*
X190500000Y-99060000D03*
X193040000Y-99060000D03*
X195580000Y-99060000D03*
X144780000Y-101600000D03*
X147320000Y-101600000D03*
X149860000Y-101600000D03*
X152400000Y-101600000D03*
X154940000Y-101600000D03*
X157480000Y-101600000D03*
X160020000Y-101600000D03*
X162560000Y-101600000D03*
X165100000Y-101600000D03*
X167640000Y-101600000D03*
X170180000Y-101600000D03*
X172720000Y-101600000D03*
X175260000Y-101600000D03*
X177800000Y-101600000D03*
X180340000Y-101600000D03*
X182880000Y-101600000D03*
X185420000Y-101600000D03*
X187960000Y-101600000D03*
X190500000Y-101600000D03*
X193040000Y-101600000D03*
X195580000Y-101600000D03*
X144780000Y-104140000D03*
X147320000Y-104140000D03*
X149860000Y-104140000D03*
X152400000Y-104140000D03*
X154940000Y-104140000D03*
X157480000Y-104140000D03*
X160020000Y-104140000D03*
X162560000Y-104140000D03*
X165100000Y-104140000D03*
X167640000Y-104140000D03*
X170180000Y-104140000D03*
X172720000Y-104140000D03*
X175260000Y-104140000D03*
X177800000Y-104140000D03*
X180340000Y-104140000D03*
X182880000Y-104140000D03*
X185420000Y-104140000D03*
X187960000Y-104140000D03*
X190500000Y-104140000D03*
X193040000Y-104140000D03*
X195580000Y-104140000D03*
X144780000Y-106680000D03*
X147320000Y-106680000D03*
X149860000Y-106680000D03*
X152400000Y-106680000D03*
X154940000Y-106680000D03*
X157480000Y-106680000D03*
X160020000Y-106680000D03*
X162560000Y-106680000D03*
X165100000Y-106680000D03*
X167640000Y-106680000D03*
X170180000Y-106680000D03*
X172720000Y-106680000D03*
X175260000Y-106680000D03*
X177800000Y-106680000D03*
X180340000Y-106680000D03*
X182880000Y-106680000D03*
X185420000Y-106680000D03*
X187960000Y-106680000D03*
X190500000Y-106680000D03*
X193040000Y-106680000D03*
X195580000Y-106680000D03*
X144780000Y-109220000D03*
X147320000Y-109220000D03*
X149860000Y-109220000D03*
X152400000Y-109220000D03*
X154940000Y-109220000D03*
X157480000Y-109220000D03*
X160020000Y-109220000D03*
X162560000Y-109220000D03*
X165100000Y-109220000D03*
X167640000Y-109220000D03*
X170180000Y-109220000D03*
X172720000Y-109220000D03*
X175260000Y-109220000D03*
X177800000Y-109220000D03*
X180340000Y-109220000D03*
X182880000Y-109220000D03*
X185420000Y-109220000D03*
X187960000Y-109220000D03*
X190500000Y-109220000D03*
X193040000Y-109220000D03*
X195580000Y-109220000D03*
X144780000Y-111760000D03*
X147320000Y-111760000D03*
X149860000Y-111760000D03*
X152400000Y-111760000D03*
X154940000Y-111760000D03*
X157480000Y-111760000D03*
X160020000Y-111760000D03*
X162560000Y-111760000D03*
X165100000Y-111760000D03*
X167640000Y-111760000D03*
X170180000Y-111760000D03*
X172720000Y-111760000D03*
X175260000Y-111760000D03*
X177800000Y-111760000D03*
X180340000Y-111760000D03*
X182880000Y-111760000D03*
X185420000Y-111760000D03*
X187960000Y-111760000D03*
X190500000Y-111760000D03*
X193040000Y-111760000D03*
X195580000Y-111760000D03*
X144780000Y-114300000D03*
X147320000Y-114300000D03*
X149860000Y-114300000D03*
X152400000Y-114300000D03*
X154940000Y-114300000D03*
X157480000Y-114300000D03*
X160020000Y-114300000D03*
X162560000Y-114300000D03*
X165100000Y-114300000D03*
X167640000Y-114300000D03*
X170180000Y-114300000D03*
X172720000Y-114300000D03*
X175260000Y-114300000D03*
X177800000Y-114300000D03*
X180340000Y-114300000D03*
X182880000Y-114300000D03*
X185420000Y-114300000D03*
X187960000Y-114300000D03*
X190500000Y-114300000D03*
X193040000Y-114300000D03*
X195580000Y-114300000D03*
X144780000Y-116840000D03*
X147320000Y-116840000D03*
X149860000Y-116840000D03*
X152400000Y-116840000D03*
X154940000Y-116840000D03*
X157480000Y-116840000D03*
X160020000Y-116840000D03*
X162560000Y-116840000D03*
X165100000Y-116840000D03*
X167640000Y-116840000D03*
X170180000Y-116840000D03*
X172720000Y-116840000D03*
X175260000Y-116840000D03*
X177800000Y-116840000D03*
X180340000Y-116840000D03*
X182880000Y-116840000D03*
X185420000Y-116840000D03*
X187960000Y-116840000D03*
X190500000Y-116840000D03*
X193040000Y-116840000D03*
X195580000Y-116840000D03*
X144780000Y-119380000D03*
X147320000Y-119380000D03*
X149860000Y-119380000D03*
X152400000Y-119380000D03*
X154940000Y-119380000D03*
X157480000Y-119380000D03*
X160020000Y-119380000D03*
X162560000Y-119380000D03*
X165100000Y-119380000D03*
X167640000Y-119380000D03*
X170180000Y-119380000D03*
X172720000Y-119380000D03*
X175260000Y-119380000D03*
X177800000Y-119380000D03*
X180340000Y-119380000D03*
X182880000Y-119380000D03*
X185420000Y-119380000D03*
X187960000Y-119380000D03*
X190500000Y-119380000D03*
X193040000Y-119380000D03*
X195580000Y-119380000D03*
D13*
X172700000Y-119400000D02*
X172720000Y-119380000D01*
D14*
X162540000Y-125000000D02*
X162540000Y-121940000D01*
X162540000Y-121940000D02*
X162560000Y-121920000D01*
X165080000Y-125000000D02*
X165080000Y-121940000D01*
X165080000Y-121940000D02*
X165100000Y-121920000D01*
X167620000Y-125000000D02*
X167620000Y-121940000D01*
X167620000Y-121940000D02*
X167640000Y-121920000D01*
X170160000Y-125000000D02*
X170160000Y-121940000D01*
X170160000Y-121940000D02*
X170180000Y-121920000D01*
X172700000Y-125000000D02*
X172700000Y-121940000D01*
X172700000Y-121940000D02*
X172720000Y-121920000D01*
X175240000Y-125000000D02*
X175240000Y-121940000D01*
X175240000Y-121940000D02*
X175260000Y-121920000D01*
X177780000Y-121940000D02*
X177800000Y-121920000D01*
X177780000Y-125000000D02*
X177780000Y-121940000D01*
X182860000Y-121940000D02*
X182880000Y-121920000D01*
X182860000Y-125000000D02*
X182860000Y-121940000D01*
X185400000Y-121940000D02*
X185420000Y-121920000D01*
X185400000Y-125000000D02*
X185400000Y-121940000D01*
X187960000Y-123190000D02*
X187960000Y-121920000D01*
X187940000Y-123210000D02*
X187960000Y-123190000D01*
X187940000Y-125000000D02*
X187940000Y-123210000D01*
X190480000Y-121940000D02*
X190500000Y-121920000D01*
X190480000Y-125000000D02*
X190480000Y-121940000D01*
X193020000Y-121940000D02*
X193040000Y-121920000D01*
X193020000Y-125000000D02*
X193020000Y-121940000D01*
X195560000Y-121940000D02*
X195580000Y-121920000D01*
X195560000Y-125000000D02*
X195560000Y-121940000D01*
X155936000Y-76740000D02*
X155936000Y-77744000D01*
X155936000Y-77744000D02*
X154305000Y-79375000D01*
X154305000Y-79375000D02*
X153035000Y-79375000D01*
X153035000Y-79375000D02*
X152400000Y-80010000D01*
X152400000Y-80010000D02*
X152400000Y-81280000D01*
X154940000Y-81280000D02*
X155575000Y-81280000D01*
X158476000Y-78379000D02*
X158476000Y-76740000D01*
X155575000Y-81280000D02*
X158476000Y-78379000D01*
X160020000Y-80010000D02*
X160020000Y-81280000D01*
X161016000Y-79014000D02*
X160020000Y-80010000D01*
X161016000Y-76740000D02*
X161016000Y-79014000D01*
X162560000Y-80010000D02*
X162560000Y-81280000D01*
X163556000Y-79014000D02*
X162560000Y-80010000D01*
X163556000Y-76740000D02*
X163556000Y-79014000D01*
X165100000Y-80010000D02*
X165100000Y-81280000D01*
X166096000Y-79014000D02*
X165100000Y-80010000D01*
X166096000Y-76740000D02*
X166096000Y-79014000D01*
X167640000Y-80010000D02*
X167640000Y-81280000D01*
X168636000Y-79014000D02*
X167640000Y-80010000D01*
X168636000Y-76740000D02*
X168636000Y-79014000D01*
X170180000Y-80010000D02*
X170180000Y-81280000D01*
X171176000Y-79014000D02*
X170180000Y-80010000D01*
X171176000Y-76740000D02*
X171176000Y-79014000D01*
X172720000Y-80010000D02*
X172720000Y-81280000D01*
X173716000Y-79014000D02*
X172720000Y-80010000D01*
X173716000Y-76740000D02*
X173716000Y-79014000D01*
X177780000Y-81260000D02*
X177800000Y-81280000D01*
X177780000Y-76740000D02*
X177780000Y-81260000D01*
X180320000Y-81260000D02*
X180340000Y-81280000D01*
X180320000Y-76740000D02*
X180320000Y-81260000D01*
X182860000Y-81260000D02*
X182880000Y-81280000D01*
X182860000Y-76740000D02*
X182860000Y-81260000D01*
X185400000Y-81260000D02*
X185420000Y-81280000D01*
X185400000Y-76740000D02*
X185400000Y-81260000D01*
X187940000Y-81260000D02*
X187960000Y-81280000D01*
X187940000Y-76740000D02*
X187940000Y-81260000D01*
X190500000Y-80010000D02*
X190500000Y-81280000D01*
X190480000Y-79990000D02*
X190500000Y-80010000D01*
X190480000Y-76740000D02*
X190480000Y-79990000D01*
X193020000Y-81260000D02*
X193040000Y-81280000D01*
X193020000Y-76740000D02*
X193020000Y-81260000D01*
X195560000Y-81260000D02*
X195580000Y-81280000D01*
X195560000Y-76740000D02*
X195560000Y-81260000D01*
M02*
